<svg xmlns="http://www.w3.org/2000/svg" width="16" height="16" viewBox="0 0 16 16" fill="#fff">
  <defs>
    <style>
      .cls-1 {
        fill: #fff;
        fill-rule: evenodd;
      }
    </style>
  </defs>
  <path id="常规icon" class="cls-1" d="M1072.36,1123h-14.72a0.644,0.644,0,0,1-.64-0.64v-14.72a0.644,0.644,0,0,1,.64-0.64h14.72a0.644,0.644,0,0,1,.64.64v14.72A0.644,0.644,0,0,1,1072.36,1123Zm-0.8-14.56h-13.12v13.12h13.12v-13.12Zm-10,6.02a2.254,2.254,0,0,1,.64-0.1,1.949,1.949,0,0,0-.64.1v-4.42a0.158,0.158,0,0,1,.16-0.16h0.96a0.158,0.158,0,0,1,.16.16v4.42a2.081,2.081,0,0,1,0,3.96,2.254,2.254,0,0,1-.64.1,1.949,1.949,0,0,0,.64-0.1v1.54a0.158,0.158,0,0,1-.16.16h-0.96a0.158,0.158,0,0,1-.16-0.16v-1.54A2.081,2.081,0,0,1,1061.56,1114.46Zm0,2.31a0.147,0.147,0,0,0,.02.04h0l0.03,0.04v0.01c0.01,0.01.01,0.02,0.02,0.03h0.01c0.01,0.01.02,0.03,0.03,0.04h0l0.03,0.03h0c0.01,0.01.03,0.02,0.04,0.03l0.03,0.03h0.01a0.053,0.053,0,0,0,.03.02c0,0.01,0,.01.01,0.01a0.053,0.053,0,0,0,.03.02c0.01,0,.01,0,0.01.01s0.02,0.01.03,0.01l0.02,0.01a0.227,0.227,0,0,0,.04.01,0.147,0.147,0,0,0,.04.02H1062c0.01,0,.02.01,0.03,0.01h0.01a0.09,0.09,0,0,0,.05.01h0.01c0.01,0,.02.01,0.03,0.01h0.12a0.048,0.048,0,0,1,.04-0.01h0.01a0.06,0.06,0,0,0,.04-0.01h0.01a0.037,0.037,0,0,0,.03-0.01h0.02a0.147,0.147,0,0,1,.04-0.02,0.227,0.227,0,0,1,.04-0.01l0.01-.01c0.01,0,.02-0.01.03-0.01a0.01,0.01,0,0,1,.01-0.01c0.01-.01.03-0.01,0.04-0.02l0.01-.01a0.038,0.038,0,0,0,.02-0.02h0.01a0.138,0.138,0,0,0,.04-0.03l0.03-.03h0.01l0.02-.03h0.01a0.138,0.138,0,0,0,.03-0.04h0a0.053,0.053,0,0,0,.02-0.03,0.01,0.01,0,0,1,.01-0.01l0.02-.04h0a0.052,0.052,0,0,0,.02-0.04,0.65,0.65,0,0,0,0-.66,0.052,0.052,0,0,0-.02-0.04h0l-0.02-.04a0.01,0.01,0,0,1-.01-0.01,0.053,0.053,0,0,0-.02-0.03h0c-0.01-.01-0.02-0.03-0.03-0.04l-0.04-.03-0.03-.03a0.138,0.138,0,0,0-.04-0.03h-0.01a0.022,0.022,0,0,0-.02-0.02l-0.01-.01a0.076,0.076,0,0,0-.04-0.02,0.01,0.01,0,0,1-.01-0.01c-0.01,0-.02-0.01-0.03-0.01l-0.01-.01a0.227,0.227,0,0,1-.04-0.01,0.147,0.147,0,0,1-.04-0.02h-0.02c-0.01,0-.02-0.01-0.03-0.01h-0.01a0.06,0.06,0,0,0-.04-0.01h-0.01a0.227,0.227,0,0,1-.04-0.01h-0.12a0.037,0.037,0,0,1-.03.01h-0.01a0.09,0.09,0,0,0-.05.01h-0.01a0.037,0.037,0,0,0-.03.01h-0.01a0.147,0.147,0,0,0-.04.02,0.227,0.227,0,0,0-.04.01l-0.02.01c-0.01,0-.02.01-0.03,0.01s0,0.01-.01.01-0.02.01-.03,0.02-0.01,0-.01.01a0.053,0.053,0,0,0-.03.02h-0.01l-0.03.03a0.138,0.138,0,0,0-.04.03l-0.03.03a0.138,0.138,0,0,0-.03.04h-0.01a0.053,0.053,0,0,1-.02.03v0.01l-0.03.04h0a0.142,0.142,0,0,1-.02.04A0.721,0.721,0,0,0,1061.56,1116.77Zm5.6-5.19a2.254,2.254,0,0,1,.64-0.1,1.949,1.949,0,0,0-.64.1v-1.54a0.158,0.158,0,0,1,.16-0.16h0.96a0.158,0.158,0,0,1,.16.16v1.54a2.081,2.081,0,0,1,0,3.96,2.254,2.254,0,0,1-.64.1,1.949,1.949,0,0,0,.64-0.1v4.42a0.158,0.158,0,0,1-.16.16h-0.96a0.158,0.158,0,0,1-.16-0.16v-4.42A2.081,2.081,0,0,1,1067.16,1111.58Zm0,2.31a0.147,0.147,0,0,0,.02.04h0l0.03,0.04v0.01c0.01,0.01.01,0.02,0.02,0.03h0.01c0.01,0.01.02,0.03,0.03,0.04l0.03,0.03c0.01,0.01.03,0.02,0.04,0.03l0.03,0.03h0.01a0.053,0.053,0,0,0,.03.02c0,0.01,0,.01.01,0.01a0.053,0.053,0,0,0,.03.02c0.01,0,.01,0,0.01.01s0.02,0.01.03,0.01l0.02,0.01a0.227,0.227,0,0,0,.04.01,0.147,0.147,0,0,0,.04.02h0.01c0.01,0,.02.01,0.03,0.01h0.01a0.09,0.09,0,0,0,.05.01h0.01c0.01,0,.02.01,0.03,0.01h0.12a0.048,0.048,0,0,1,.04-0.01h0.01a0.06,0.06,0,0,0,.04-0.01h0.01a0.037,0.037,0,0,0,.03-0.01H1068a0.147,0.147,0,0,1,.04-0.02,0.227,0.227,0,0,1,.04-0.01l0.01-.01c0.01,0,.02-0.01.03-0.01a0.01,0.01,0,0,1,.01-0.01c0.01-.01.03-0.01,0.04-0.02l0.01-.01a0.038,0.038,0,0,0,.02-0.02h0.01a0.138,0.138,0,0,0,.04-0.03l0.03-.03,0.04-.03a0.138,0.138,0,0,0,.03-0.04h0a0.053,0.053,0,0,0,.02-0.03,0.01,0.01,0,0,1,.01-0.01l0.02-.04h0a0.052,0.052,0,0,0,.02-0.04,0.721,0.721,0,0,0,0-.66,0.052,0.052,0,0,0-.02-0.04h0l-0.02-.04a0.01,0.01,0,0,1-.01-0.01,0.053,0.053,0,0,0-.02-0.03h0c-0.01-.01-0.02-0.03-0.03-0.04h-0.01l-0.02-.03h-0.01l-0.03-.03a0.138,0.138,0,0,0-.04-0.03h-0.01a0.022,0.022,0,0,0-.02-0.02l-0.01-.01a0.076,0.076,0,0,0-.04-0.02,0.01,0.01,0,0,1-.01-0.01c-0.01,0-.02-0.01-0.03-0.01l-0.01-.01a0.227,0.227,0,0,1-.04-0.01,0.147,0.147,0,0,1-.04-0.02h-0.02c-0.01,0-.02-0.01-0.03-0.01h-0.01a0.06,0.06,0,0,0-.04-0.01h-0.01a0.227,0.227,0,0,1-.04-0.01h-0.12a0.037,0.037,0,0,1-.03.01h-0.01a0.09,0.09,0,0,0-.05.01h-0.01a0.037,0.037,0,0,0-.03.01h-0.01a0.147,0.147,0,0,0-.04.02,0.227,0.227,0,0,0-.04.01l-0.02.01c-0.01,0-.02.01-0.03,0.01s0,0.01-.01.01-0.02.01-.03,0.02-0.01,0-.01.01a0.053,0.053,0,0,0-.03.02h-0.01l-0.03.03a0.138,0.138,0,0,0-.04.03h0l-0.03.03h0a0.138,0.138,0,0,0-.03.04h-0.01a0.053,0.053,0,0,1-.02.03v0.01l-0.03.04h0a0.142,0.142,0,0,1-.02.04A0.721,0.721,0,0,0,1067.16,1113.89Z" transform="translate(-1057 -1107)"/>
</svg>
