<svg xmlns="http://www.w3.org/2000/svg" width="24" height="24" viewBox="0 0 24 24" fill="#fff">
  <defs>
    <style>
      .cls-1 {
        fill: #fff;
        fill-rule: evenodd;
      }
    </style>
  </defs>
  <path id="暂停icon" class="cls-1" d="M1519,1515a12,12,0,1,1,12-12A12,12,0,0,1,1519,1515Zm0-21.96a9.96,9.96,0,1,0,9.96,9.96A9.961,9.961,0,0,0,1519,1493.04Zm3.64,14.25h-1.28a0.222,0.222,0,0,1-.22-0.22v-8.14a0.222,0.222,0,0,1,.22-0.22h1.28a0.222,0.222,0,0,1,.22.22v8.14A0.222,0.222,0,0,1,1522.64,1507.29Zm-6,0h-1.28a0.222,0.222,0,0,1-.22-0.22v-8.14a0.222,0.222,0,0,1,.22-0.22h1.28a0.222,0.222,0,0,1,.22.22v8.14A0.222,0.222,0,0,1,1516.64,1507.29Z" transform="translate(-1507 -1491)"/>
</svg>
