<svg xmlns="http://www.w3.org/2000/svg" width="16" height="16" viewBox="0 0 16 16" fill="#fff">
  <defs>
    <style>
      .cls-1 {
        fill: #fff;
        fill-rule: evenodd;
      }
    </style>
  </defs>
  <path id="后台设置icon" class="cls-1" d="M1071.55,1245.97a5.939,5.939,0,0,1,0,2.06l1.24,1a0.55,0.55,0,0,1,.17.63l-0.01.04a8.094,8.094,0,0,1-1.51,2.47l-0.03.03a0.607,0.607,0,0,1-.66.17l-1.54-.51a6.729,6.729,0,0,1-1.88,1.03l-0.29,1.52a0.587,0.587,0,0,1-.49.45l-0.05.01a8.719,8.719,0,0,1-3,0l-0.05-.01a0.587,0.587,0,0,1-.49-0.45l-0.3-1.53a6.644,6.644,0,0,1-1.86-1.03l-1.55.52a0.6,0.6,0,0,1-.66-0.17l-0.03-.03a7.791,7.791,0,0,1-1.51-2.47l-0.01-.04a0.542,0.542,0,0,1,.17-0.63l1.25-1.01a5.845,5.845,0,0,1-.08-1.02,5.769,5.769,0,0,1,.08-1.02l-1.25-1.01a0.55,0.55,0,0,1-.17-0.63l0.01-.05a7.747,7.747,0,0,1,1.51-2.46l0.03-.04a0.626,0.626,0,0,1,.66-0.17l1.55,0.52a6.875,6.875,0,0,1,1.86-1.02l0.3-1.53a0.612,0.612,0,0,1,.49-0.46l0.05-.01a9.435,9.435,0,0,1,3,0l0.05,0.01a0.612,0.612,0,0,1,.49.46l0.29,1.52a6.484,6.484,0,0,1,1.88,1.03l1.54-.52a0.626,0.626,0,0,1,.66.17l0.03,0.04a7.931,7.931,0,0,1,1.51,2.46l0.01,0.05a0.55,0.55,0,0,1-.17.63Zm-0.85-2.96-1.75.59-0.6-.46a5.287,5.287,0,0,0-1.49-.82l-0.72-.26-0.34-1.73a8.552,8.552,0,0,0-1.6,0l-0.34,1.74-0.71.25a5.548,5.548,0,0,0-1.49.82l-0.59.46-1.76-.59a7.122,7.122,0,0,0-.81,1.31l1.43,1.16-0.13.71a5.52,5.52,0,0,0-.06.81,5.656,5.656,0,0,0,.06.82l0.13,0.71-1.43,1.15a6.878,6.878,0,0,0,.81,1.32l1.76-.6,0.59,0.47a5.518,5.518,0,0,0,1.49.81l0.71,0.26,0.34,1.74a8.552,8.552,0,0,0,1.6,0l0.34-1.74,0.72-.25a5.287,5.287,0,0,0,1.49-.82l0.59-.46,1.75,0.59a6.412,6.412,0,0,0,.81-1.32l-1.41-1.14,0.12-.71a4.9,4.9,0,0,0,0-1.65l-0.12-.71,1.41-1.14A6.832,6.832,0,0,0,1070.7,1243.01Zm-5.7,6.96a3.15,3.15,0,1,1,3.32-3.15A3.24,3.24,0,0,1,1065,1249.97Zm1.5-4.56a2.189,2.189,0,0,0-2.99,0,1.925,1.925,0,0,0,0,2.83,2.217,2.217,0,0,0,2.99,0A1.946,1.946,0,0,0,1066.5,1245.41Z" transform="translate(-1057 -1239.015)"/>
</svg>
