<svg xmlns="http://www.w3.org/2000/svg" width="16" height="16" viewBox="0 0 16 16" fill="#fff">
  <defs>
    <style>
      .cls-1 {
        fill: #fff;
        fill-rule: evenodd;
      }
    </style>
  </defs>
  <path id="信息icon" class="cls-1" d="M878,158a8,8,0,1,1,8-8A8,8,0,0,1,878,158Zm0-14.643A6.643,6.643,0,1,0,884.643,150,6.644,6.644,0,0,0,878,143.357Zm0,4.357a0.857,0.857,0,1,1,.857-0.857A0.857,0.857,0,0,1,878,147.714Zm-0.429,1.143h0.858a0.143,0.143,0,0,1,.142.143v4.857a0.143,0.143,0,0,1-.142.143h-0.858a0.143,0.143,0,0,1-.142-0.143V149A0.143,0.143,0,0,1,877.571,148.857Z" transform="translate(-870 -142)"/>
</svg>
