<svg xmlns="http://www.w3.org/2000/svg" width="16" height="16" viewBox="0 0 16 16" fill="#fff">
  <metadata><?xpacket begin="﻿" id="W5M0MpCehiHzreSzNTczkc9d"?>
<x:xmpmeta xmlns:x="adobe:ns:meta/" x:xmptk="Adobe XMP Core 5.6-c138 79.159824, 2016/09/14-01:09:01        ">
   <rdf:RDF xmlns:rdf="http://www.w3.org/1999/02/22-rdf-syntax-ns#">
      <rdf:Description rdf:about=""/>
   </rdf:RDF>
</x:xmpmeta>
                                                                                                    
                                                                                                    
                                                                                                    
                                                                                                    
                                                                                                    
                                                                                                    
                                                                                                    
                                                                                                    
                                                                                                    
                                                                                                    
                                                                                                    
                                                                                                    
                                                                                                    
                                                                                                    
                                                                                                    
                                                                                                    
                                                                                                    
                                                                                                    
                                                                                                    
                                                                                                    
                           
<?xpacket end="w"?></metadata>
<defs>
    <style>
      .cls-1 {
        fill: #fff;
        fill-rule: evenodd;
      }
    </style>
  </defs>
  <g id="音量1">
    <g id="组_13" data-name="组 13">
      <path id="形状_519" data-name="形状 519" class="cls-1" d="M397.1,253.2v3.5h2.7l3.1,2.4v-8.3l-3,2.4h-2.8Zm2.4-1.1,3.6-2.9a0.661,0.661,0,0,1,.6-0.1,0.55,0.55,0,0,1,.3.5v10.6a0.55,0.55,0,0,1-.3.5,0.471,0.471,0,0,1-.6-0.1l-3.7-2.9h-2.8a0.576,0.576,0,0,1-.6-0.6v-4.6a0.645,0.645,0,0,1,.6-0.6h2.9v0.2Zm7.3,6.3a0.566,0.566,0,1,1-.8-0.8,3.477,3.477,0,0,0,1.1-2.7,3.946,3.946,0,0,0-1-2.5,0.477,0.477,0,0,1-.1-0.5,0.781,0.781,0,0,1,.4-0.4,0.475,0.475,0,0,1,.5.2,5.069,5.069,0,0,1,1.3,3.3,4.073,4.073,0,0,1-1.4,3.4h0Zm2.8,2.4a0.735,0.735,0,0,1-.6.2,0.43,0.43,0,0,1-.4-0.4,0.44,0.44,0,0,1,.1-0.5,7.106,7.106,0,0,0,2.1-5.1,7.028,7.028,0,0,0-2-5,0.566,0.566,0,0,1,.8-0.8A8.433,8.433,0,0,1,412,255a8.251,8.251,0,0,1-2.4,5.8h0Z" transform="translate(-396 -247)"/>
    </g>
  </g>
</svg>
