<svg id="_128px" data-name="128px" xmlns="http://www.w3.org/2000/svg" xmlns:xlink="http://www.w3.org/1999/xlink" width="24" height="24" viewBox="0 0 120 120">
  <metadata><?xpacket begin="﻿" id="W5M0MpCehiHzreSzNTczkc9d"?>
<x:xmpmeta xmlns:x="adobe:ns:meta/" x:xmptk="Adobe XMP Core 5.6-c138 79.159824, 2016/09/14-01:09:01        ">
   <rdf:RDF xmlns:rdf="http://www.w3.org/1999/02/22-rdf-syntax-ns#">
      <rdf:Description rdf:about=""/>
   </rdf:RDF>
</x:xmpmeta>
                                                                                                    
                                                                                                    
                                                                                                    
                                                                                                    
                                                                                                    
                                                                                                    
                                                                                                    
                                                                                                    
                                                                                                    
                                                                                                    
                                                                                                    
                                                                                                    
                                                                                                    
                                                                                                    
                                                                                                    
                                                                                                    
                                                                                                    
                                                                                                    
                                                                                                    
                                                                                                    
                           
<?xpacket end="w"?></metadata>
<defs>
    <style>
      .cls-1 {
        fill: url(#linear-gradient);
      }

      .cls-2 {
        fill: #daeaff;
      }

      .cls-2, .cls-3 {
        fill-rule: evenodd;
      }

      .cls-3 {
        fill: #3e92ff;
      }
    </style>
    <linearGradient id="linear-gradient" x1="60" y1="120" x2="60" gradientUnits="userSpaceOnUse">
      <stop offset="0" stop-color="#3066ff"/>
      <stop offset="1" stop-color="#5aafff"/>
    </linearGradient>
  </defs>
  <rect id="矩形_1" data-name="矩形 1" class="cls-1" width="120" height="120" rx="24" ry="24"/>
  <path id="形状_1" data-name="形状 1" class="cls-2" d="M2130.07,3268.46l-5.14,2.82v-5.83a2.514,2.514,0,0,0-2.57-2.45h-23.79a2.514,2.514,0,0,0-2.57,2.45v22.1a2.514,2.514,0,0,0,2.57,2.45h23.79a2.514,2.514,0,0,0,2.57-2.45v-5.83l5.14,2.82a1.289,1.289,0,0,0,1.93-1.06v-13.96a1.289,1.289,0,0,0-1.93-1.06h0Z" transform="translate(-2027 -3193)"/>
  <path id="形状_1_拷贝" data-name="形状 1 拷贝" class="cls-3" d="M2101.79,3269.63h4.5a0.319,0.319,0,0,0,.32-0.3v-1.85a0.319,0.319,0,0,0-.32-0.3h-4.5a0.321,0.321,0,0,0-.33.3v1.85a0.321,0.321,0,0,0,.33.3h0Zm0,0" transform="translate(-2027 -3193)"/>
  <path id="圆角矩形_2" data-name="圆角矩形 2" class="cls-2" d="M2098,3259a6,6,0,0,0-6,6v22h-31a6,6,0,0,1-6-6v-62a6,6,0,0,1,6-6h52a6,6,0,0,1,6,6v40h-21Z" transform="translate(-2027 -3193)"/>
  <path id="圆角矩形_3_拷贝_4" data-name="圆角矩形 3 拷贝 4" class="cls-3" d="M2067,3224h40a2,2,0,0,1,0,4h-40A2,2,0,0,1,2067,3224Zm0,12h40a2,2,0,0,1,0,4h-40A2,2,0,0,1,2067,3236Zm0,12h40a2,2,0,0,1,0,4h-40A2,2,0,0,1,2067,3248Zm0,12h17a2,2,0,0,1,0,4h-17A2,2,0,0,1,2067,3260Zm0,13h17a2,2,0,0,1,0,4h-17A2,2,0,0,1,2067,3273Z" transform="translate(-2027 -3193)"/>
</svg>
