<svg xmlns="http://www.w3.org/2000/svg" width="16" height="16" viewBox="0 0 16 16" fill="#fff">
  <defs>
    <style>
      .cls-1 {
        fill: #fff;
        fill-rule: evenodd;
      }
    </style>
  </defs>
  <path id="禁用麦克风icon" class="cls-1" d="M1703.96,1517.92h0l-11.11,12.21a0.127,0.127,0,0,1-.18,0l-0.67-.73a0.182,0.182,0,0,1,0-.2l2.14-2.34a6.2,6.2,0,0,1-.54-2.53,0.142,0.142,0,0,1,.13-0.14h0.93a0.15,0.15,0,0,1,.13.14,4.873,4.873,0,0,0,.25,1.54l1.06-1.16c-0.01-.12-0.02-0.23-0.02-0.34v-3.84a2.775,2.775,0,0,1,2.65-2.88,2.653,2.653,0,0,1,2.37,1.57l2.01-2.21a0.115,0.115,0,0,1,.17,0l0.68,0.71A0.152,0.152,0,0,1,1703.96,1517.92Zm-5.23,1.03a1.523,1.523,0,0,0-1.46,1.58v2.89l2.9-3.19A1.5,1.5,0,0,0,1698.73,1518.95Zm2.67,2.93v2.47a2.775,2.775,0,0,1-2.65,2.88,2.55,2.55,0,0,1-1.65-.62l0.84-.94a1.363,1.363,0,0,0,.81.25,1.522,1.522,0,0,0,1.47-1.57v-1.17Zm-6.08,6.68,0.84-.92a3.735,3.735,0,0,0,2.57,1.04,4.17,4.17,0,0,0,3.97-4.35,0.133,0.133,0,0,1,.12-0.14h0.94a0.133,0.133,0,0,1,.12.14,5.488,5.488,0,0,1-4.58,5.62v1.75h2.32a0.484,0.484,0,0,1,.39.55v0.61a0.122,0.122,0,0,1-.09.14h-6.37a0.122,0.122,0,0,1-.09-0.14v-0.61a0.484,0.484,0,0,1,.39-0.55h2.26v-1.75A5.017,5.017,0,0,1,1695.32,1528.56Z" transform="translate(-1690 -1517)"/>
</svg>
