<svg xmlns="http://www.w3.org/2000/svg" width="16" height="16" viewBox="0 0 16 16" fill="#fff">
  <defs>
    <style>
      .cls-1 {
        fill: #fff;
        fill-rule: evenodd;
      }
    </style>
  </defs>
  <path id="输入icon" class="cls-1" d="M545.654,358.823v1.82h2.714a0.521,0.521,0,0,1,.45.571v0.643a0.131,0.131,0,0,1-.113.143h-7.411a0.131,0.131,0,0,1-.113-0.143v-0.643a0.521,0.521,0,0,1,.449-0.571h2.642v-1.829a5.931,5.931,0,0,1-5.272-5.85,0.145,0.145,0,0,1,.145-0.143h1.091a0.146,0.146,0,0,1,.146.143,4.619,4.619,0,0,0,9.236,0,0.145,0.145,0,0,1,.145-0.143h1.091a0.146,0.146,0,0,1,.146.143A5.935,5.935,0,0,1,545.654,358.823ZM545,356a3.046,3.046,0,0,1-3.091-3v-4a3.092,3.092,0,0,1,6.182,0v4A3.046,3.046,0,0,1,545,356Zm1.709-7a1.711,1.711,0,0,0-3.419,0v4a1.711,1.711,0,0,0,3.419,0v-4Z" transform="translate(-537 -346)"/>
</svg>
