<svg xmlns="http://www.w3.org/2000/svg" width="16" height="16" viewBox="0 0 16 16" fill="#fff">
  <defs>
    <style>
      .cls-1 {
        fill: #fff;
        fill-rule: evenodd;
      }
    </style>
  </defs>
  <path id="用户中心icon" class="cls-1" d="M1070.45,1252.06a7.7,7.7,0,0,0-1.5-2.41,7.171,7.171,0,0,0-2.22-1.62,0.037,0.037,0,0,1-.03-0.01,5.093,5.093,0,0,0,1.92-4.04,4.633,4.633,0,1,0-9.24,0,5.128,5.128,0,0,0,1.92,4.05,0.037,0.037,0,0,0-.03.01,6.864,6.864,0,0,0-2.22,1.62,7.541,7.541,0,0,0-1.5,2.4,7.9,7.9,0,0,0-.55,2.77,0.153,0.153,0,0,0,.15.17h1.12a0.148,0.148,0,0,0,.14-0.16,6.236,6.236,0,0,1,1.64-4.1,5.292,5.292,0,0,1,7.9,0,6.236,6.236,0,0,1,1.64,4.1,0.148,0.148,0,0,0,.14.16h1.12a0.153,0.153,0,0,0,.15-0.17,7.9,7.9,0,0,0-.55-2.77h0Zm-6.45-4.62a3.067,3.067,0,0,1-2.26-1.01,3.65,3.65,0,0,1,0-4.89,3.034,3.034,0,0,1,4.52,0,3.65,3.65,0,0,1,0,4.89,3.067,3.067,0,0,1-2.26,1.01h0Zm0,0" transform="translate(-1056 -1239)"/>
</svg>
