<svg xmlns="http://www.w3.org/2000/svg" width="16" height="16" viewBox="0 0 16 16" fill="#fff">
  <metadata><?xpacket begin="﻿" id="W5M0MpCehiHzreSzNTczkc9d"?>
<x:xmpmeta xmlns:x="adobe:ns:meta/" x:xmptk="Adobe XMP Core 5.6-c138 79.159824, 2016/09/14-01:09:01        ">
   <rdf:RDF xmlns:rdf="http://www.w3.org/1999/02/22-rdf-syntax-ns#">
      <rdf:Description rdf:about=""/>
   </rdf:RDF>
</x:xmpmeta>
                                                                                                    
                                                                                                    
                                                                                                    
                                                                                                    
                                                                                                    
                                                                                                    
                                                                                                    
                                                                                                    
                                                                                                    
                                                                                                    
                                                                                                    
                                                                                                    
                                                                                                    
                                                                                                    
                                                                                                    
                                                                                                    
                                                                                                    
                                                                                                    
                                                                                                    
                                                                                                    
                           
<?xpacket end="w"?></metadata>
<defs>
    <style>
      .cls-1 {
        fill: #fff;
        fill-rule: evenodd;
      }
    </style>
  </defs>
  <path id="二维码icon" class="cls-1" d="M2290.83,2321h-1a0.167,0.167,0,0,1-.16-0.17v-1a0.158,0.158,0,0,1,.16-0.16h1a0.167,0.167,0,0,1,.17.16v1A0.175,0.175,0,0,1,2290.83,2321Zm0-2.96h-3.96a0.161,0.161,0,0,1-.16-0.17v-2.12h-1.63v5.08a0.167,0.167,0,0,1-.16.17h-1a0.169,0.169,0,0,1-.17-0.17v-6.91a0.163,0.163,0,0,1,.17-0.17h3.95a0.163,0.163,0,0,1,.17.17v2.79h1.63v-2.79a0.161,0.161,0,0,1,.16-0.17h1a0.169,0.169,0,0,1,.17.17v3.95A0.169,0.169,0,0,1,2290.83,2318.04Zm0-5.79h-6.91a0.169,0.169,0,0,1-.17-0.17v-6.91a0.163,0.163,0,0,1,.17-0.17h6.41a0.67,0.67,0,0,1,.67.67v6.41A0.175,0.175,0,0,1,2290.83,2312.25Zm-1.16-5.92h-4.59v4.59h4.59v-4.59Zm-2.88,1.54h1.17a0.167,0.167,0,0,1,.16.17v1.17a0.158,0.158,0,0,1-.16.16h-1.17a0.167,0.167,0,0,1-.17-0.16v-1.17A0.175,0.175,0,0,1,2286.79,2307.87Zm-4.71,13.13h-6.41a0.67,0.67,0,0,1-.67-0.67v-6.41a0.163,0.163,0,0,1,.17-0.17h6.91a0.169,0.169,0,0,1,.17.17v6.91A0.175,0.175,0,0,1,2282.08,2321Zm-1.16-5.92h-4.59v4.59h4.59v-4.59Zm-2.88,1.54h1.17a0.167,0.167,0,0,1,.16.17v1.17a0.158,0.158,0,0,1-.16.16h-1.17a0.167,0.167,0,0,1-.17-0.16v-1.17A0.175,0.175,0,0,1,2278.04,2316.62Zm4.04-4.37h-6.91a0.169,0.169,0,0,1-.17-0.17v-6.41a0.67,0.67,0,0,1,.67-0.67h6.41a0.169,0.169,0,0,1,.17.17v6.91A0.175,0.175,0,0,1,2282.08,2312.25Zm-1.16-5.92h-4.59v4.59h4.59v-4.59Zm-2.88,1.54h1.17a0.167,0.167,0,0,1,.16.17v1.17a0.158,0.158,0,0,1-.16.16h-1.17a0.167,0.167,0,0,1-.17-0.16v-1.17A0.175,0.175,0,0,1,2278.04,2307.87Zm8.83,11.8h1a0.161,0.161,0,0,1,.17.16v1a0.169,0.169,0,0,1-.17.17h-1a0.167,0.167,0,0,1-.16-0.17v-1A0.158,0.158,0,0,1,2286.87,2319.67Z" transform="translate(-2275 -2305)"/>
</svg>
