<svg xmlns="http://www.w3.org/2000/svg" width="16" height="16" viewBox="0 0 16 16" fill="#fff">
  <defs>
    <style>
      .cls-1 {
        fill: #fff;
        fill-rule: evenodd;
      }
    </style>
  </defs>
  <path id="列表icon" class="cls-1" d="M1072.84,1187.59h-11.45a0.166,0.166,0,0,1-.15-0.17v-1.15a0.156,0.156,0,0,1,.15-0.16h11.45a0.158,0.158,0,0,1,.16.16v1.15A0.167,0.167,0,0,1,1072.84,1187.59Zm0-5.85h-11.45a0.156,0.156,0,0,1-.15-0.16v-1.16a0.156,0.156,0,0,1,.15-0.16h11.45a0.158,0.158,0,0,1,.16.16v1.16A0.158,0.158,0,0,1,1072.84,1181.74Zm0-5.85h-11.45a0.156,0.156,0,0,1-.15-0.16v-1.15a0.166,0.166,0,0,1,.15-0.17h11.45a0.167,0.167,0,0,1,.16.17v1.15A0.158,0.158,0,0,1,1072.84,1175.89ZM1058.1,1188a1.156,1.156,0,1,1,1.1-1.15A1.127,1.127,0,0,1,1058.1,1188Zm0-5.85a1.151,1.151,0,1,1,1.1-1.15A1.121,1.121,0,0,1,1058.1,1182.15Zm0-5.84a1.156,1.156,0,1,1,1.1-1.16A1.13,1.13,0,0,1,1058.1,1176.31Z" transform="translate(-1057 -1173)"/>
</svg>
