<?xml version="1.0" encoding="utf-8"?>
<!-- Generator: Adobe Illustrator 22.1.0, SVG Export Plug-In . SVG Version: 6.00 Build 0)  -->
<svg version="1.2" baseProfile="tiny" id="图层_1"
	 xmlns="http://www.w3.org/2000/svg" xmlns:xlink="http://www.w3.org/1999/xlink" x="0px" y="0px" viewBox="0 0 16 16"
	 xml:space="preserve">
<path id="二维码icon" fill="#FFFFFF" d="M15.8,16h-1c-0.1,0-0.2-0.1-0.2-0.2v-1c0-0.1,0.1-0.2,0.2-0.2h1c0.1,0,0.2,0.1,0.2,0.2
	c0,0,0,0,0,0v1C16,15.9,15.9,16,15.8,16z M15.8,13h-4c-0.1,0-0.2-0.1-0.2-0.2c0,0,0,0,0,0v-2.1h-1.6v5.1c0,0.1-0.1,0.2-0.2,0.2h-1
	c-0.1,0-0.2-0.1-0.2-0.2V8.9c0-0.1,0.1-0.2,0.2-0.2h4C13,8.8,13,8.8,13,8.9v2.8h1.6V8.9c0-0.1,0.1-0.2,0.2-0.2h1
	c0.1,0,0.2,0.1,0.2,0.2v4C16,13,15.9,13,15.8,13z M15.8,7.3H8.9c-0.1,0-0.2-0.1-0.2-0.2V0.2C8.7,0.1,8.8,0,8.9,0h6.4
	C15.7,0,16,0.3,16,0.7c0,0,0,0,0,0v6.4C16,7.2,15.9,7.3,15.8,7.3z M14.7,1.3h-4.6v4.6h4.6V1.3z M11.8,2.9H13C13,2.9,13.1,3,13.1,3
	v1.2c0,0.1-0.1,0.2-0.2,0.2h-1.2c-0.1,0-0.2-0.1-0.2-0.2V3C11.6,2.9,11.7,2.9,11.8,2.9C11.8,2.9,11.8,2.9,11.8,2.9L11.8,2.9z
	 M7.1,16H0.7C0.3,16,0,15.7,0,15.3c0,0,0,0,0,0V8.9c0-0.1,0.1-0.2,0.2-0.2h6.9c0.1,0,0.2,0.1,0.2,0.2v6.9C7.2,15.9,7.2,16,7.1,16z
	 M5.9,10.1H1.3v4.6h4.6V10.1z M3,11.6h1.2c0.1,0,0.2,0.1,0.2,0.2c0,0,0,0,0,0V13c0,0.1-0.1,0.2-0.2,0.2c0,0,0,0,0,0H3
	c-0.1,0-0.2-0.1-0.2-0.2c0,0,0,0,0,0v-1.2C2.9,11.7,2.9,11.6,3,11.6C3,11.6,3,11.6,3,11.6z M7.1,7.3H0.2C0.1,7.2,0,7.2,0,7.1V0.7
	C0,0.3,0.3,0,0.7,0c0,0,0,0,0,0h6.4c0.1,0,0.2,0.1,0.2,0.2v6.9C7.2,7.2,7.2,7.2,7.1,7.3z M5.9,1.3H1.3v4.6h4.6V1.3z M3,2.9h1.2
	c0.1,0,0.2,0.1,0.2,0.2c0,0,0,0,0,0v1.2c0,0.1-0.1,0.2-0.2,0.2c0,0,0,0,0,0H3c-0.1,0-0.2-0.1-0.2-0.2c0,0,0,0,0,0V3
	C2.9,3,2.9,2.9,3,2.9C3,2.9,3,2.9,3,2.9z M11.9,14.7h1c0.1,0,0.2,0.1,0.2,0.2v1c0,0.1-0.1,0.2-0.2,0.2h-1c-0.1,0-0.2-0.1-0.2-0.2
	c0,0,0,0,0,0v-1C11.7,14.7,11.8,14.7,11.9,14.7C11.9,14.7,11.9,14.7,11.9,14.7z"/>
</svg>
