<svg xmlns="http://www.w3.org/2000/svg" width="14" height="14" viewBox="0 0 14 14" fill="white">
  <metadata><?xpacket begin="﻿" id="W5M0MpCehiHzreSzNTczkc9d"?>
<x:xmpmeta xmlns:x="adobe:ns:meta/" x:xmptk="Adobe XMP Core 5.6-c138 79.159824, 2016/09/14-01:09:01        ">
   <rdf:RDF xmlns:rdf="http://www.w3.org/1999/02/22-rdf-syntax-ns#">
      <rdf:Description rdf:about=""/>
   </rdf:RDF>
</x:xmpmeta>
                                                                                                    
                                                                                                    
                                                                                                    
                                                                                                    
                                                                                                    
                                                                                                    
                                                                                                    
                                                                                                    
                                                                                                    
                                                                                                    
                                                                                                    
                                                                                                    
                                                                                                    
                                                                                                    
                                                                                                    
                                                                                                    
                                                                                                    
                                                                                                    
                                                                                                    
                                                                                                    
                           
<?xpacket end="w"?></metadata>
<defs>
    <style>
      .cls-1 {
        fill: #fff;
        fill-rule: evenodd;
      }
    </style>
  </defs>
  <path id="后台列表icon" class="cls-1" d="M46.44,224H33.56a0.559,0.559,0,0,1-.56-0.56V210.56a0.559,0.559,0,0,1,.56-0.56H46.44a0.559,0.559,0,0,1,.56.56v12.88A0.559,0.559,0,0,1,46.44,224Zm-0.7-12.74H34.26v11.48H45.74V211.26Zm-8.05,2.52a0.7,0.7,0,1,1-.7.7A0.7,0.7,0,0,1,37.69,213.78Zm0,2.52a0.7,0.7,0,1,1-.7.7A0.7,0.7,0,0,1,37.69,216.3Zm0,2.52a0.7,0.7,0,1,1-.7.7A0.7,0.7,0,0,1,37.69,218.82Zm1.96-4.9h3.22a0.14,0.14,0,0,1,.14.14v0.84a0.14,0.14,0,0,1-.14.14H39.65a0.14,0.14,0,0,1-.14-0.14v-0.84A0.14,0.14,0,0,1,39.65,213.92Zm0,2.52h3.22a0.14,0.14,0,0,1,.14.14v0.84a0.14,0.14,0,0,1-.14.14H39.65a0.14,0.14,0,0,1-.14-0.14v-0.84A0.14,0.14,0,0,1,39.65,216.44Zm0,2.52h3.22a0.14,0.14,0,0,1,.14.14v0.84a0.14,0.14,0,0,1-.14.14H39.65a0.14,0.14,0,0,1-.14-0.14V219.1A0.14,0.14,0,0,1,39.65,218.96Z" transform="translate(-33 -210)"/>
</svg>
