<?xml version="1.0" encoding="utf-8"?>
<!-- Generator: Adobe Illustrator 22.1.0, SVG Export Plug-In . SVG Version: 6.00 Build 0)  -->
<svg version="1.2" baseProfile="tiny" id="图层_1"
	 xmlns="http://www.w3.org/2000/svg" xmlns:xlink="http://www.w3.org/1999/xlink" x="0px" y="0px" viewBox="0 0 10 10"
	 xml:space="preserve">
<path id="菜单栏icon" fill="#FEFEFE" d="M9.9,0.5H0.1C0,0.5,0,0.5,0,0.6v0.8c0,0.1,0,0.1,0.1,0.1c0,0,0,0,0,0h9.8
	c0.1,0,0.1,0,0.1-0.1L9.9,0.5C10,0.5,10,0.5,9.9,0.5L9.9,0.5z M9.9,8.5H0.1C0,8.5,0,8.5,0,8.6c0,0,0,0,0,0v0.8c0,0.1,0,0.1,0.1,0.1
	h9.8c0.1,0,0.1,0,0.1-0.1L9.9,8.5C10,8.5,10,8.5,9.9,8.5L9.9,8.5z M9.9,4.5H0.1C0,4.5,0,4.5,0,4.6c0,0,0,0,0,0v0.8
	c0,0.1,0,0.1,0.1,0.1c0,0,0,0,0,0h9.8c0.1,0,0.1,0,0.1-0.1L9.9,4.5C10,4.5,10,4.5,9.9,4.5L9.9,4.5z"/>
</svg>
